<?xml version="1.0" standalone="no"?>
<!DOCTYPE svg PUBLIC "-//W3C//DTD SVG 20010904//EN"
 "http://www.w3.org/TR/2001/REC-SVG-20010904/DTD/svg10.dtd">
<svg version="1.0" xmlns="http://www.w3.org/2000/svg"
 width="400.000000pt" height="400.000000pt" viewBox="0 0 400.000000 400.000000"
 preserveAspectRatio="xMidYMid meet">
<metadata>
Created by potrace 1.11, written by Peter Selinger 2001-2013
</metadata>
<g transform="translate(0.000000,400.000000) scale(0.100000,-0.100000)"
fill="#000000" stroke="none">
<path d="M1968 3655 c-2 -1 -52 -5 -111 -9 -60 -3 -111 -8 -115 -10 -4 -2 -24
-7 -44 -10 -411 -65 -842 -351 -1082 -719 -107 -164 -199 -384 -232 -552 -2
-11 -8 -42 -14 -70 -16 -77 -20 -138 -21 -285 0 -147 3 -186 31 -331 73 -376
295 -732 605 -974 119 -92 329 -215 343 -200 4 4 8 41 8 82 3 155 12 210 74
473 23 96 70 297 105 445 l64 270 -21 60 c-33 97 -38 227 -13 350 10 47 62
147 96 183 87 93 215 121 316 68 81 -41 125 -170 101 -296 -5 -25 -10 -54 -12
-65 -2 -11 -32 -114 -66 -230 -89 -298 -87 -374 16 -465 53 -46 98 -62 179
-65 210 -8 391 175 479 482 48 169 66 400 40 534 -65 343 -383 536 -799 487
-179 -21 -335 -97 -461 -222 -152 -152 -226 -335 -227 -556 0 -141 19 -206 88
-310 l49 -71 -23 -95 c-32 -133 -50 -145 -139 -100 -188 96 -304 340 -296 626
2 52 5 106 8 120 6 24 19 90 21 100 5 27 45 129 73 185 75 150 182 278 316
377 209 153 466 232 756 232 436 -1 790 -210 962 -569 96 -202 111 -452 44
-736 -65 -279 -214 -510 -411 -638 -70 -46 -177 -95 -227 -105 -13 -2 -41 -8
-64 -14 -22 -5 -78 -10 -125 -11 -147 -3 -275 45 -371 141 -32 31 -58 55 -58
52 0 -2 -21 -84 -46 -181 -25 -98 -52 -204 -60 -236 -19 -78 -66 -191 -125
-296 -55 -100 -63 -90 89 -120 124 -25 213 -34 333 -34 90 1 248 11 259 18 3
2 23 6 45 9 66 11 224 56 302 87 519 206 901 662 1013 1209 27 134 29 155 30
330 1 149 0 166 -26 310 -16 93 -20 107 -60 225 -176 528 -638 948 -1180 1073
-99 23 -134 29 -214 37 -75 7 -198 14 -202 10z"/>
</g>
</svg>
